/* XPM */
static char *_998ab589b164392d646b8a6b3abad5d[] = {
/* columns rows colors chars-per-pixel */
"64 64 6 1 ",
"  c None",
". c #2DAE75",
"X c #2DAE76",
"o c #467ED1",
"O c #477DD3",
"+ c #467ED2",
/* pixels */
"                                                                ",
"                                                                ",
"                                                                ",
"                                                                ",
"                                                                ",
"                                                                ",
"                                                                ",
"                                                                ",
"                                                                ",
"                                                                ",
"                                                                ",
"                             oo                                 ",
"                             oo                                 ",
"                             ooo                                ",
"                             oooo                               ",
"                             oooo                               ",
"                            oooooo                              ",
"                            oooooo                              ",
"                            ooooooo                             ",
"                            ooooooo                             ",
"                            ooo oooo                            ",
"                            ooo oooo                 oo         ",
"                           oooo  oooo           oooooo          ",
"                           oooo   ooo      oooooooooo           ",
"                           ooo    oooooooooooooooooo            ",
"                           ooo     oooooooooooooooo             ",
"                           ooo     oooooooo   oooo              ",
"                       ooooooo      oo       oooo               ",
"                   ooooooooooo              oooo                ",
"              ooooooooooooooo              oooo                 ",
"          oooooooooooooo                  oooo                  ",
"           ooooooooo            XXXX     oooo                   ",
"             oooooooo         XXXXXXX   oooo                    ",
"               oooooooo      XXXXXXXX. +ooo                     ",
"                  oooo     XXXXX  XXXX Oooo                     ",
"                         XXXXX     XXX  oooo                    ",
"                        XXXXX      XXX   ooo                    ",
"                         XXX      XXXX   oooo                   ",
"                         XXX     XXXX      oo                   ",
"                         XXX    XXXXXX                          ",
"                         XXX     XXXXXXX                        ",
"                        XXX        XXXXXXXX                     ",
"                        XXX          XXXXXXXX                   ",
"                        XXX  XXX       XXXXXXXX                 ",
"                        XXX XXXX          XXXXXXX               ",
"                        XXXXXXX             XXXXXX              ",
"                        XXXXXX                XXXX              ",
"                       XXXXXX                    XX             ",
"                       XXXXX                                    ",
"                       XXXX                                     ",
"                       XXX                                      ",
"                       XX                                       ",
"                      XX                                        ",
"                      XX                                        ",
"                                                                ",
"                                                                ",
"                                                                ",
"                                                                ",
"                                                                ",
"                                                                ",
"                                                                ",
"                                                                ",
"                                                                ",
"                                                                "
};
