/* XPM */
static char *_c5c57dedd554537fd737580bb87b8de[] = {
/* columns rows colors chars-per-pixel */
"32 32 6 1 ",
"  c None",
". c #2DAF74",
"X c #2DAF75",
"o c #2DAE76",
"O c #467ED1",
"+ c #467DD2",
/* pixels */
"                                ",
"                                ",
"                                ",
"                                ",
"                                ",
"                                ",
"               O                ",
"              OO                ",
"              OOO               ",
"              OOOO              ",
"              OOOO              ",
"              O  OO    OOOO     ",
"             OO  OOOOOOOOO      ",
"             OO   OO  OOO       ",
"        OOOOOOO       OO        ",
"     OOOOOO          OO         ",
"       OOOO    ooo. OO          ",
"         OO  oo  oX +O          ",
"            oo   oo  O          ",
"            oo  ooo             ",
"            oo   oooo           ",
"            oo     oooo         ",
"            oooo     oooo       ",
"            ooo         o       ",
"            oo                  ",
"           oo                   ",
"           o                    ",
"                                ",
"                                ",
"                                ",
"                                ",
"                                "
};
