/* XPM */
static char *e81ab4bc1d6f4c3addd32870e6fe6074[] = {
/* columns rows colors chars-per-pixel */
"128 128 3 1 ",
"  c None",
". c #2DAE76",
"X c #467ED1",
/* pixels */
"                                                                                                                                ",
"                                                                                                                                ",
"                                                                                                                                ",
"                                                                                                                                ",
"                                                                                                                                ",
"                                                                                                                                ",
"                                                                                                                                ",
"                                                                                                                                ",
"                                                                                                                                ",
"                                                                                                                                ",
"                                                                                                                                ",
"                                                                                                                                ",
"                                                                                                                                ",
"                                                                                                                                ",
"                                                                                                                                ",
"                                                                                                                                ",
"                                                                                                                                ",
"                                                                                                                                ",
"                                                                                                                                ",
"                                                           X                                                                    ",
"                                                           XX                                                                   ",
"                                                           XX                                                                   ",
"                                                           XXX                                                                  ",
"                                                           XXX                                                                  ",
"                                                          XXXXX                                                                 ",
"                                                          XXXXX                                                                 ",
"                                                          XXXXXX                                                                ",
"                                                          XXXXXX                                                                ",
"                                                          XXXXXXX                                                               ",
"                                                          XXXXXXX                                                               ",
"                                                         XXXXXXXXX                                                              ",
"                                                         XXXXXXXXX                                                              ",
"                                                         XXXXXXXXXX                                                             ",
"                                                         XXXXXXXXXXX                                                            ",
"                                                         XXXXXXXXXXX                                                            ",
"                                                        XXXXXXXXXXXXX                                                           ",
"                                                        XXXXXXXXXXXXX                                                           ",
"                                                        XXXXXXXXXXXXXX                                                          ",
"                                                        XXXXXXXXXXXXXX                                                          ",
"                                                        XXXXXX XXXXXXXX                                                         ",
"                                                        XXXXXX  XXXXXXX                                                         ",
"                                                       XXXXXXX  XXXXXXXX                                                        ",
"                                                       XXXXXXX   XXXXXXX                                    XX                  ",
"                                                       XXXXXXX   XXXXXXXX                              XXXXXX                   ",
"                                                       XXXXXX     XXXXXXXX                        XXXXXXXXXX                    ",
"                                                       XXXXXX     XXXXXXXX                   XXXXXXXXXXXXXX                     ",
"                                                       XXXXXX      XXXXXXXX             XXXXXXXXXXXXXXXXXX                      ",
"                                                      XXXXXXX      XXXXXXXX        XXXXXXXXXXXXXXXXXXXXXX                       ",
"                                                      XXXXXXX       XXXXXXXX  XXXXXXXXXXXXXXXXXXXXXXXXXX                        ",
"                                                      XXXXXXX       XXXXXXXXXXXXXXXXXXXXXXXXXXXXXXXXXXXX                        ",
"                                                      XXXXXX         XXXXXXXXXXXXXXXXXXXXXXXXXXXXXXXXXX                         ",
"                                                      XXXXXX          XXXXXXXXXXXXXXXXXXXXXXXXXXXXXXXX                          ",
"                                                      XXXXXX          XXXXXXXXXXXXXXXXXX    XXXXXXXXX                           ",
"                                                     XXXXXXX           XXXXXXXXXXXXX       XXXXXXXXX                            ",
"                                                 XXXXXXXXXXX           XXXXXXXX           XXXXXXXXX                             ",
"                                            XXXXXXXXXXXXXXXX            XX               XXXXXXXXX                              ",
"                                       XXXXXXXXXXXXXXXXXXXX                             XXXXXXXXX                               ",
"                                   XXXXXXXXXXXXXXXXXXXXXXXX                            XXXXXXXXX                                ",
"                              XXXXXXXXXXXXXXXXXXXXXXXXXXXXX                           XXXXXXXXX                                 ",
"                         XXXXXXXXXXXXXXXXXXXXXXXXXXXXXX                              XXXXXXXXX                                  ",
"                    XXXXXXXXXXXXXXXXXXXXXXXXXXXXXXX                                 XXXXXXXXX                                   ",
"                  XXXXXXXXXXXXXXXXXXXXXXXXXXXX                                     XXXXXXXXX                                    ",
"                    XXXXXXXXXXXXXXXXXXXXXX                        ....            XXXXXXXXX                                     ",
"                       XXXXXXXXXXXXXXXX                        .........         XXXXXXXXX                                      ",
"                         XXXXXXXXXXXXXXXX                    .............      XXXXXXXXX                                       ",
"                           XXXXXXXXXXXXXXXXX                ...............    XXXXXXXXX                                        ",
"                              XXXXXXXXXXXXXXXX            ..................  XXXXXXXXX                                         ",
"                                XXXXXXXXXXXXXXX         ....................  XXXXXXXX                                          ",
"                                  XXXXXXXXXXX          .........   .........   XXXXXXX                                          ",
"                                     XXXXXXX         .........       ........  XXXXXXXX                                         ",
"                                       XXX         ..........        ........   XXXXXXX                                         ",
"                                                  .........           .......   XXXXXXXX                                        ",
"                                                ..........            .......    XXXXXXX                                        ",
"                                               ..........             ......     XXXXXXXX                                       ",
"                                                 ........             ......      XXXXXXX                                       ",
"                                                  ......             ......        XXXXXXX                                      ",
"                                                  ......           .......            XXXXX                                     ",
"                                                  ......         .........              XXX                                     ",
"                                                  ......        ..........                XX                                    ",
"                                                  ......      ...............                                                   ",
"                                                 ......         ...............                                                 ",
"                                                 ......           ................                                              ",
"                                                 ......              ...............                                            ",
"                                                 ......                ...............                                          ",
"                                                 ......                  ................                                       ",
"                                                ......                     ................                                     ",
"                                                ......     ....               ...............                                   ",
"                                                ......    .......               ................                                ",
"                                                ......   ........                 ................                              ",
"                                                ......  ........                     .............                              ",
"                                                .....  ........                        ............                             ",
"                                               ...............                           ..........                             ",
"                                               ..............                               ........                            ",
"                                               .............                                  .......                           ",
"                                               ............                                     .....                           ",
"                                               ...........                                         ...                          ",
"                                              ...........                                            .                          ",
"                                              ..........                                                                        ",
"                                              .........                                                                         ",
"                                              ........                                                                          ",
"                                              .......                                                                           ",
"                                              ......                                                                            ",
"                                             ......                                                                             ",
"                                             .....                                                                              ",
"                                             ....                                                                               ",
"                                             ...                                                                                ",
"                                             ..                                                                                 ",
"                                            ...                                                                                 ",
"                                            ..                                                                                  ",
"                                                                                                                                ",
"                                                                                                                                ",
"                                                                                                                                ",
"                                                                                                                                ",
"                                                                                                                                ",
"                                                                                                                                ",
"                                                                                                                                ",
"                                                                                                                                ",
"                                                                                                                                ",
"                                                                                                                                ",
"                                                                                                                                ",
"                                                                                                                                ",
"                                                                                                                                ",
"                                                                                                                                ",
"                                                                                                                                ",
"                                                                                                                                ",
"                                                                                                                                ",
"                                                                                                                                ",
"                                                                                                                                "
};
